<?xml version="1.0" standalone="no"?>
<!DOCTYPE svg PUBLIC "-//W3C//DTD SVG 20010904//EN"
 "http://www.w3.org/TR/2001/REC-SVG-20010904/DTD/svg10.dtd">
<svg version="1.0" xmlns="http://www.w3.org/2000/svg"
 width="700.000000pt" height="700.000000pt" viewBox="0 0 700.000000 700.000000"
 preserveAspectRatio="xMidYMid meet">
<metadata>
Created by potrace 1.14, written by Peter Selinger 2001-2017
</metadata>
<g transform="translate(0.000000,700.000000) scale(0.100000,-0.100000)"
fill="#000000" stroke="none">
<path d="M5110 5443 c-51 -92 -95 -171 -97 -175 -4 -8 70 -58 85 -58 5 0 26
33 47 73 21 39 47 88 58 107 52 91 87 159 87 167 0 8 -18 19 -82 51 -3 2 -48
-73 -98 -165z"/>
<path d="M4018 5577 c-21 -11 -38 -24 -38 -29 0 -5 26 -59 59 -121 32 -61 71
-136 86 -164 15 -29 29 -53 32 -53 6 0 67 31 80 42 8 7 -6 43 -54 136 -90 172
-109 206 -119 208 -5 1 -26 -7 -46 -19z"/>
<path d="M4602 5560 c-4 -3 -7 -43 -8 -90 0 -47 -3 -106 -6 -132 -5 -45 -4
-46 26 -52 17 -3 41 -8 54 -10 13 -3 22 0 23 7 0 7 3 35 6 62 3 28 6 88 7 135
l1 85 -48 0 c-26 1 -51 -2 -55 -5z"/>
<path d="M4176 5071 c-16 -19 -85 -164 -96 -200 -7 -24 7 -41 156 -191 90 -91
160 -168 156 -171 -4 -4 -40 -10 -80 -13 -144 -13 -377 -87 -532 -169 -84 -45
-232 -143 -270 -180 l-25 -24 -45 32 c-131 95 -254 163 -384 215 -92 36 -276
85 -356 95 -30 3 -68 9 -85 11 -71 12 -328 4 -385 -11 -8 -2 -35 -7 -60 -10
-25 -4 -85 -18 -134 -31 -499 -140 -887 -527 -1067 -1064 -21 -63 -41 -130
-44 -149 -3 -19 -8 -37 -10 -41 -9 -14 -36 -198 -42 -283 -31 -434 60 -832
256 -1123 96 -142 208 -248 356 -336 448 -267 995 -325 1500 -161 137 44 348
139 419 188 16 12 27 7 91 -35 193 -130 409 -198 742 -234 139 -15 452 -18
548 -6 33 5 83 11 110 15 79 9 203 41 294 74 444 162 794 632 911 1225 44 221
46 506 6 731 -89 500 -356 872 -789 1100 -102 54 -250 109 -365 136 -93 22
-102 26 -85 37 64 41 363 334 363 356 0 6 -11 20 -25 30 -14 10 -53 57 -87
102 l-61 84 -86 1 c-47 0 -171 2 -276 5 -478 12 -504 11 -519 -5z m148 -103
c1 -1 19 -27 39 -55 l37 -53 -33 -1 c-59 -1 -151 3 -158 7 -10 6 12 71 31 92
15 16 75 23 84 10z m492 -10 c3 -4 -11 -28 -31 -55 l-37 -48 -107 -1 -108 -1
-36 53 c-20 29 -37 55 -37 58 0 9 347 2 356 -6z m218 -45 l35 -48 -87 -5 c-48
-3 -89 -4 -91 -3 -2 1 12 25 30 52 43 67 67 68 113 4z m-66 -185 c-13 -13 -45
-42 -71 -65 -26 -24 -51 -43 -56 -43 -10 0 -91 108 -91 121 0 7 228 18 239 12
2 -2 -7 -13 -21 -25z m-462 0 c-9 -13 -26 -40 -38 -60 -13 -21 -26 -37 -30
-35 -9 3 -105 94 -113 107 -4 7 28 10 96 10 l101 0 -16 -22z m189 -103 l57
-79 -22 -18 c-21 -17 -50 -21 -139 -20 -20 0 -42 9 -53 20 -20 19 -20 20 8 63
32 52 85 121 89 117 2 -2 29 -39 60 -83z m80 -238 c416 -75 722 -247 947 -534
41 -52 148 -224 148 -238 0 -2 11 -28 24 -57 37 -83 84 -240 101 -337 3 -19 8
-37 10 -40 9 -15 19 -168 19 -296 1 -169 -10 -289 -39 -420 -63 -281 -205
-578 -360 -752 -159 -178 -324 -295 -495 -351 -80 -26 -218 -58 -285 -66 -27
-3 -73 -8 -101 -11 -158 -18 -505 -1 -669 31 -11 3 -36 7 -55 10 -158 26 -333
94 -461 180 -264 175 -468 527 -538 924 -6 36 -14 79 -17 95 -11 57 -13 350
-3 435 27 233 120 517 223 679 l28 44 27 -29 c42 -46 96 -116 119 -155 l22
-37 -21 -48 c-103 -237 -144 -515 -115 -789 28 -270 150 -531 330 -710 113
-112 233 -188 401 -255 133 -53 287 -80 480 -85 377 -9 711 139 934 415 20 25
39 47 42 50 22 19 115 192 148 275 197 498 114 1093 -200 1430 -135 144 -346
268 -515 299 -16 4 -42 9 -59 12 -109 20 -374 26 -485 10 -19 -3 -55 -8 -80
-11 -222 -29 -343 -67 -466 -147 l-71 -46 -84 91 c-46 49 -85 92 -86 96 -2 6
35 35 132 102 160 112 390 200 610 234 78 12 395 13 460 2z m-2090 -31 c147
-31 193 -43 280 -73 344 -119 663 -384 821 -681 75 -140 153 -369 169 -492 4
-30 8 -57 10 -60 7 -12 18 -186 19 -300 2 -194 -26 -387 -79 -556 -23 -73 -93
-224 -120 -258 -15 -19 -16 -19 -57 20 -23 21 -53 52 -67 68 -13 15 -30 33
-36 40 -6 6 -23 27 -38 47 l-27 36 34 69 c53 109 90 230 112 369 9 57 12 321
4 366 -4 24 -11 65 -14 91 -16 120 -87 314 -166 451 -286 501 -888 748 -1428
587 -401 -119 -732 -532 -844 -1054 -18 -83 -22 -135 -22 -296 -1 -209 13
-294 70 -448 150 -397 491 -650 954 -707 59 -8 281 -8 315 -1 11 2 45 7 75 11
75 10 80 11 168 35 96 26 243 82 301 115 24 14 45 24 45 23 11 -21 101 -134
134 -170 l44 -47 -30 -15 c-16 -8 -50 -26 -76 -40 -169 -90 -439 -171 -638
-193 -103 -11 -351 -8 -428 5 -36 6 -83 14 -104 18 -117 18 -373 111 -468 171
-21 13 -40 23 -43 23 -19 0 -160 108 -212 161 -119 123 -188 231 -252 391 -85
214 -120 426 -116 688 4 247 40 432 130 665 42 108 153 316 185 345 3 3 19 25
35 49 50 75 225 243 320 307 191 130 369 200 620 243 55 9 372 7 420 -3z m-50
-352 c157 -28 330 -100 463 -194 l73 -51 -19 -32 c-93 -154 -187 -386 -217
-532 -47 -231 -59 -406 -42 -615 15 -196 91 -476 174 -646 l40 -82 -36 -20
c-112 -63 -340 -132 -486 -148 -123 -14 -298 -9 -410 11 -130 24 -298 92 -413
169 -220 146 -385 431 -417 721 -19 165 6 400 61 575 87 277 287 568 479 695
116 76 263 136 377 151 24 4 45 8 47 9 9 10 257 1 326 -11z m2161 -49 c148
-25 263 -67 375 -140 294 -190 451 -523 444 -942 -3 -156 -5 -171 -37 -323
-69 -328 -272 -605 -548 -749 -69 -36 -176 -77 -225 -87 -11 -2 -45 -9 -75
-15 -63 -14 -294 -18 -390 -7 -93 11 -220 43 -309 79 -85 34 -161 75 -161 88
0 5 18 39 40 77 92 161 150 362 176 614 5 49 5 360 0 390 -3 14 -7 48 -10 75
-17 142 -40 247 -83 375 -37 110 -103 251 -155 333 -36 57 -36 57 60 111 85
48 190 85 278 97 40 5 82 12 94 14 12 2 48 7 79 11 31 3 57 7 58 8 11 9 324 2
389 -9z m-1236 -829 c35 -133 44 -197 44 -341 0 -194 -25 -327 -89 -480 -20
-47 -22 -44 -64 81 -45 135 -62 236 -66 379 -2 114 14 304 30 356 3 10 8 28
10 40 3 12 17 59 31 103 l27 80 24 -55 c14 -29 38 -103 53 -163z"/>
</g>
</svg>
