<?xml version="1.0" encoding="utf-8"?>
<!-- Designed by Vexels.com - 2019 All Rights Reserved - https://vexels.com/terms-and-conditions/  -->
<svg version="1.1" id="Capa_1" xmlns="http://www.w3.org/2000/svg" xmlns:xlink="http://www.w3.org/1999/xlink" x="0px" y="0px"
	 viewBox="0 0 1200 1200" enable-background="new 0 0 1200 1200" xml:space="preserve">
<g>
	<path d="M820.116,248.583c-7.044-14.868-17.871-26.928-32.191-35.867c4.481-5.661,6.661-19.648,6.482-41.647l-0.007-1.151
		c-0.007-26.344-12.269-48.528-35.456-64.153c-26.773-18.042-62.263-22.316-94.929-11.434c-2.454,0.817-4.995,1.797-7.942,3.061
		c-3.73-3.415-7.226-7.22-10.615-10.905c-5.478-5.959-11.142-12.122-17.98-16.889c-11.543-8.045-26.561-13.782-44.641-17.05
		c-29.227-5.281-55.691-2.341-78.645,8.749c-44.77,21.634-83.852,82.281-69.907,131.645c-26.114,10.005-47.424,36.699-57.066,58.992
		c-21.626,50.011,3.959,102.86,40.668,129.791c-15.897,18.639-3.678,56.209,4.941,71.811c18.279,33.096,54.839,41.671,75.005,43.837
		c17.466,1.876,42.741,2.095,65.158-7.21c0.065,1.315,0.177,3.014,0.306,4.971c0.515,7.795,2.081,31.521-1.37,32.923
		c-0.955,0.387-2.066,0.382-3.3,0.379c-0.691,0.003-1.41-0.004-2.104,0.063c-3.924,0.37-7.793,2.999-10.352,7.031
		c-4.966,7.826-8.176,21.132-4.702,31.423c1.987,5.884,5.975,10.082,11.538,12.139c2.464,0.911,5.177,1.601,8.268,2.104
		c0.045,1.6,0.129,3.198,0.214,4.795c0.099,1.826,0.196,3.65,0.229,5.478c-3.717,0.664-11.473,3.083-11.543,3.128
		c-8.434,5.239-12.507,16.003-10.374,27.419c2.054,11.006,9.148,18.938,18.512,20.706c0.99,0.189,1.984,0.343,2.981,0.477
		c0.022,0.761,0.057,1.522,0.09,2.283c0.037,0.917,0.077,1.838,0.102,2.755c0.03,1.129,0.047,2.26,0.008,3.384l-0.08-0.003v0.724
		c-0.84,0.276-2.713,0.622-3.909,0.845c-2.114,0.39-3.449,0.651-4.187,0.977c-4.627,2.036-7.693,4.58-9.369,7.78
		c-3.618,6.9-2.745,20.375,1.76,27.203c4.24,6.425,11.249,8.613,16.712,9.591c-0.072,0.348-0.109,0.711-0.109,1.087
		c0,79.46-0.316,160.251-0.622,238.381c-0.119,29.841-0.236,59.682-0.336,89.523c-0.02,6.139,0.132,12.388,0.279,18.433
		c0.38,15.688,0.776,31.907-1.818,47.603c-0.343,2.074-0.726,4.15-1.109,6.226c-1.318,7.141-2.678,14.524-2.357,21.944
		c0.477,10.866,5.421,23.712,17.873,27.178c2.156,0.602,4.409,0.888,6.681,0.888c9.151,0,18.647-4.637,23.548-12.082
		c6.274-9.531,6.032-21.951,5.819-32.91l-0.012-0.654c2.738-0.691,15.437,0.502,27.755,1.656
		c31.365,2.939,74.311,6.962,84.782-2.785c1.716-1.599,2.564-3.521,2.514-5.717c-0.052-2.313,0.025-4.727,0.109-7.283
		c0.191-5.896,0.388-11.99-1.037-17.406c-3.506-13.171-19.825-10.702-31.743-8.904c-3.996,0.604-7.743,1.179-10.401,1.074
		l-1.276-0.045c-6.348-0.216-6.348-0.216-7.141-7.728c-0.065-0.893,0.545-9.593,0.773-12.87c0.025-0.333,0.045-0.634,0.062-0.908
		l42.863,2.143c0.88,0.045,1.887,0.119,2.979,0.201c6.689,0.495,16.799,1.248,21.971-3.379c2.064-1.845,3.168-4.364,3.285-7.49
		c0.109-2.974,0.256-5.955,0.4-8.939c0.388-7.927,0.788-16.125,0.52-24.182c-0.089-2.703-2.027-4.682-4.938-5.04
		c-19.055-2.337-38.487-2.121-57.28-1.932c-2.85,0.03-5.699,0.062-8.549,0.082v-13.358c2.579,0.067,5.167,0.174,7.763,0.279
		c13.224,0.532,26.907,1.089,39.82-3.185c4.727-1.569,4.647-13.688,4.125-27.046c-0.09-2.265-0.159-4.056-0.127-5.035
		c0.075-2.365,0.162-5.045-0.577-7.574c-2.733-9.394-15.243-8.216-24.381-7.358c-2.046,0.194-3.981,0.375-5.495,0.4
		c-14.38,0.241-26.082,0.776-36.821,1.678c-2.884,0.241-5.784,0.53-8.693,0.818c-14.039,1.39-28.541,2.827-42.266-0.773V699.615
		c2.82-0.281,5.167-0.579,7.32-0.93c8.581-1.388,14.469-5.57,17.025-12.095c2.954-7.547,2.556-14.706-1.146-20.703
		c-4.247-6.878-12.828-11.789-22.583-12.987v-9.802c5.416-0.308,9.387-1.291,12.761-3.131c8.589-4.685,12.696-17.391,12.316-27.521
		c-0.353-9.344-4.202-16.349-10.565-19.224c-2.713-1.223-5.858-2.002-9.586-2.37v-10.046c0-0.137-0.005-0.273-0.015-0.409
		c1.467-0.234,2.72-0.482,3.872-0.767c7.721-1.915,13.942-9.219,16.237-19.064c2.36-10.135-0.187-20.119-6.487-25.435
		c-5.349-4.514-12.55-5.779-19.087-6.307v-35.237c8.753,3.882,18.192,6.366,25.574,8.117c27.683,6.572,51.86,6.673,73.908,0.307
		c32.519-9.384,61.458-28.968,79.398-53.732c12.741-17.592,26.716-54.265,9.959-77.784c-0.005-0.009-0.012-0.017-0.017-0.026
		c12.152-9.509,21.064-22.123,26.502-37.517C834.118,306.116,832.429,274.575,820.116,248.583z M663.169,105.409
		c27.337-10.271,55.95-9.121,80.562,3.225c17.289,8.673,38.189,27.122,40.188,50.579c0.761,8.921,0.323,18.103-0.206,25.911
		c-0.075,1.128-0.092,2.472-0.109,3.934c-0.067,5.837-0.159,13.831-4.521,16.519c-4.839,2.984-12.691-0.578-19.614-3.717
		c-3.625-1.644-7.049-3.196-9.882-3.75c-1.206-0.236-2.424-0.439-3.643-0.64c-1.925-28.806-19.786-52.858-44.701-60.038
		c-29.446-8.483-54.309,1.279-78.148,30.729c-5.863-4.961-12.597-8.908-20.047-11.753c4.036-11.153,14.26-19.998,23.374-27.882
		C639.403,117.294,651.08,109.948,663.169,105.409z M678.318,284.119c9.887,9.988,15.399,25.812,16.859,48.372
		c1.019,15.75,0.584,31.958-9.402,43.807c-10.498,12.461-26.464,20.06-38.007,24.24c-23.065,8.351-56.875,9.608-76.255-14.341
		c-12.393-15.312-18.493-35.226-15.541-50.732c1.935-10.169,7.514-18.035,16.583-23.394c1.783,1.329,3.653,2.505,5.575,3.51
		c-5.888,31.917,1.845,51.96,24.294,63.034c21.586,10.646,46.295,7.481,61.493-7.877c12.716-12.847,17.592-32.782,12.729-52.023
		c-4.384-17.351-16.081-30.6-31.388-35.632c0.042-3.783-0.632-7.533-2.009-11.183c5.978,0.245,10.876,0.835,15.275,1.838
		c0.661,0.332,1.407,0.517,2.183,0.543C667.949,276.246,673.712,279.466,678.318,284.119z M666.827,265.463
		c1.775-8.646,7.117-14.986,15.892-18.856c17.127-7.552,43.012-3.323,56.445,5.363c14.852,9.606,19.355,28.635,10.953,46.277
		c-8.427,17.696-26.019,28.49-45.183,27.831c-0.51-4.185-1.201-8.442-2.054-12.67c-3.683-18.229-10.911-31.747-21.486-40.182
		C677.186,269.873,672.412,267.327,666.827,265.463z M609,416.52c24.836,2.025,53.12-7.08,74.4-24.009
		c4.466-3.556,8.35-7.711,11.56-12.367c6.915,6.993,16.899,10.931,29.709,11.718c6.654,26.089-19.38,46.992-43.932,57.034
		c-24.391,9.976-58.083,13.451-73.222-9.342C610.28,430.475,610.785,422.578,609,416.52z M577.672,404.753
		c-0.313,15.914-11.199,25.236-20.347,30.273c-21.205,11.676-52.832,11.351-71.988-0.734c-8.278-5.221-17.896-14.973-17.446-31.983
		c29.14,4.313,61.784-2.393,90.003-18.499C563.386,392.053,570.195,399.264,577.672,404.753z M544.914,350.172
		c-0.122,0.053-0.241,0.112-0.358,0.175c-16.292,8.705-35.175,10.364-53.168,4.665c-19.564-6.19-36.162-20.41-45.544-39.01
		c-8.424-16.702-8.678-36.708-0.666-52.21c3.732-7.221,16.961-19.835,29.2-23.165c1.949-0.531,3.775-0.796,5.468-0.796
		c2.38,0,4.498,0.522,6.341,1.565c1.335,6.632,3.75,13.257,7.179,19.7c12.403,23.298,40.327,43.445,65.919,47.896
		C547.94,318.934,542.87,333.415,544.914,350.172z M477.374,178.563c-2.049-7.16-1.415-16.435,1.882-27.565
		c4.575-15.458,17.662-30.005,35.901-39.912c11.17-6.066,23.197-9.024,35.302-9.024c21.208,0,42.642,9.08,60.07,26.426
		c-4.779,4.135-14.77,19.772-15.178,20.67l-0.139,0.311c-0.602,1.345-1.171,2.617-2.143,3.397
		c-1.726,1.384-9.829,0.283-15.193-0.441c-4.058-0.55-7.552-1.026-9.638-0.859c-16.491,1.308-32.671,6.944-46.79,16.297
		c-7.171,4.753-13.492,10.265-18.783,16.384c-0.89,1.027-1.693,2.336-2.544,3.722c-1.475,2.404-3.001,4.891-4.948,5.862
		c-4.349,2.163-8.646-1.181-11.488-4.364v-0.001C480.442,185.84,478.18,181.378,477.374,178.563z M556.342,281.601
		c-0.724-0.501-1.45-1-2.176-1.499c-8.683-5.968-17.662-12.138-21.243-21.967c-5.94-16.311,3.407-34.364,13.219-44.869
		c9.113-9.757,20.101-14.877,31.112-14.877c4.821,0,9.65,0.983,14.323,2.989c9.342,4.01,16.133,11.223,18.632,19.791
		c2.233,7.654,0.875,15.832-3.822,23.121c-13.979-3.315-26.673-1.594-35.846,4.866C560.78,256.027,555.479,268.278,556.342,281.601z
		 M643.374,293.207c10.483,3.96,18.677,12.935,22.588,24.817c4.588,13.94,2.591,29.52-5.209,40.661
		c-10.093,14.407-29.418,19.716-48.11,13.204c-9.981-3.479-17.931-9.541-22.379-17.069c-6.652-11.25-5.048-23.733-2.579-35.644
		c2.666,0.675,5.386,1.12,8.143,1.325c16.7,0.38,37.756-5.913,46.456-24.603C642.673,295.068,643.026,294.193,643.374,293.207z
		 M626.545,300.976c-7.507,6.56-19.186,9.893-30.488,8.692c-6.022-0.639-11.471-2.538-15.757-5.488
		c-10.687-7.361-15.648-21.25-12.062-33.775c3.024-10.563,11.272-16.917,22.633-17.436c11.274-0.511,27.558,3.86,37.062,13.207
		c4.995,4.912,7.435,10.552,7.256,16.764C634.984,289.977,631.998,296.213,626.545,300.976z M627.791,253.389
		c-3.449-2.245-7.353-4.266-11.416-5.911c9.867-17.126,5.53-37.394-10.834-49.746c-16.394-12.378-38.358-12.688-55.953-0.786
		c-17.142,11.597-28.635,31.995-28.6,50.758c0.022,11.372,4.879,21.301,14.852,30.353c2.405,2.184,5.868,4.25,9.534,6.435
		c6.699,3.995,14.231,8.487,15.956,14.333c-8.79,0.255-19.967-6.761-28.257-11.975c-1.325-0.834-2.579-1.621-3.735-2.326
		c-14.569-8.867-24.905-21.064-30.724-36.251c-12.149-31.715,7.368-60.308,32.099-74.577c12.025-6.937,28.036-12.357,44.559-12.357
		c10.255,0,20.706,2.087,30.525,7.195c15.775,8.211,27.81,24.792,31.405,43.276C640.248,227.459,636.906,242.177,627.791,253.389z
		 M633.003,178.564v0.001c-0.798-1.051-1.676-2.126-2.673-3.267c20.984-26.513,42.674-35.427,68.176-28.053
		c20.38,5.891,34.827,24.948,37.132,48.781c-33.27-3.597-64.307,2.911-87.823,18.397
		C646.196,201.719,640.979,189.061,633.003,178.564z M449.661,135.288c6.928-18.571,18.831-35.287,34.421-48.341
		c7.636-6.397,16.168-11.825,25.353-16.134c15.742-7.381,32.668-11.186,49.505-11.186c3.431,0,6.863,0.158,10.277,0.477
		c30.053,2.802,58.737,18.415,77.031,41.861c-9.874,5.837-19.288,12.56-28.014,20.004c-16.043-17.167-38.375-27.878-61.473-29.436
		c-23.645-1.578-48.105,6.818-65.419,22.498c-10.095,9.149-17.57,20.803-21.613,33.7c-2.986,9.532-2.201,17.561-1.365,26.063
		c0.38,3.869,0.771,7.86,0.771,12.015c-3.77,0.632-19.151,2.173-20.755,2.053c-2.703-0.297-4.672-1.506-6.022-3.696
		C437.882,177.9,440.543,159.721,449.661,135.288z M381.363,310.557c-7.661-32.166,5.147-67.612,33.422-92.506
		c12.634-11.124,23.413-16.819,36.048-19.046c6.517-1.148,12.197-1.719,17.033-1.719c10.145,0,16.57,2.521,19.166,7.549
		c0.48,0.925,1.159,1.63,1.979,2.07c-2.842,7.596-4.2,15.413-4.046,23.277c-14.181-2.613-33.215,8.949-41.928,18.787
		c-13.41,15.143-17.674,39.736-10.608,61.198c7.691,23.359,25.47,42.243,48.774,51.807c21.705,8.909,45.596,8.346,65.817-1.494
		c1.39,4.916,3.315,9.796,5.732,14.538c-34.429,19.624-73.851,23.883-105.699,11.375C415.13,373.85,389.345,344.082,381.363,310.557
		z M505.213,488.233c-4.354-0.351-8.663-0.896-12.808-1.622c-21.665-3.793-39.417-12.581-51.332-25.415
		c-8.904-9.593-15.305-22.334-18.512-36.846c-1.363-6.164-2.862-14.158-2.362-21.318c0.139-2.02,3.847-14.144,5.744-15.795
		c9.984,5.975,20.753,10.449,32.027,13.307c-2.201,14.431,5.202,30.457,18.704,40.23c11.393,8.248,26.452,12.464,44.751,12.534
		c0.149,0,0.298,0.001,0.445,0.001c16.202,0,30.075-3.259,41.235-9.688c13.089-7.543,22.188-19.728,24.59-32.816
		c6.726,1.977,10.705,4.866,11.224,12.501c1.537,22.595-14.447,42.758-30.968,52.717
		C551.414,485.989,529.723,490.207,505.213,488.233z M572.833,485.29c4.963-2.876,9.551-6.287,13.671-10.164
		c2.743,4.866,6.982,9.215,12.624,12.954v40.19l-2.852-0.155c-6.649-0.365-13.485-0.742-20.273-0.742
		c-0.965,0-1.93,0.007-2.892,0.024v-40.389C573.111,486.403,573.017,485.824,572.833,485.29z M598.198,1127.071
		c-2.265,6.042-6.86,10.419-13.291,12.657c-3.663,1.278-7.38,1.029-9.951-0.649c-1.514-0.992-2.85-2.608-3.969-4.802
		c-5.515-10.826-3.61-25.077-1.93-37.649c0.54-4.028,1.047-7.833,1.325-11.468c2.352-30.59,2.071-61.726,1.8-91.839
		c-0.102-11.418-0.209-23.227-0.169-34.834c0.107-36.348,0.174-72.699,0.244-109.05l0.137-67.612
		c0.062-27.33,0.099-54.662,0.099-81.992c9.533,0.646,18.443,0.811,26.507,0.5c-0.569,5.145-0.624,20.556-0.547,66.956
		c0.065,37.816,0.308,82.765,0.47,112.509c0.082,15.327,0.142,26.425,0.142,30.057l-0.003,161.815
		c0,4.866,0.418,10.416,0.858,16.292C600.933,1101.44,602.08,1116.715,598.198,1127.071z M652.077,944.65l4.59-0.428
		c20.696-1.877,41.926-2.121,60.341-2.173c0.027,1.552,0.065,3.103,0.099,4.655c0.184,7.718,0.373,15.688-0.883,23.391
		c-10.518,2.514-21.718,2.032-32.574,1.559c-3.787-0.164-7.703-0.333-11.518-0.37c-0.408-0.01-0.806,0.045-1.233,0.144
		c-1.405-0.052-2.77,0.475-3.725,1.383c-0.952,0.905-1.457,2.138-1.457,3.566v22.342c0,0.39,0.047,0.776,0.144,1.198
		c-0.032,1.43,0.462,2.787,1.375,3.75c0.903,0.955,2.131,1.457,3.553,1.457c0.007,0,0.015,0,0.025,0
		c4.441-0.012,8.882-0.057,13.326-0.102c17.219-0.174,35.003-0.353,52.412,1.397c0.012,6.042-0.303,12.164-0.609,18.097
		c-0.177,3.454-0.356,6.908-0.472,10.369c-7.146,1.007-14.129,0.487-21.501-0.065c-3.775-0.283-7.676-0.574-11.565-0.637
		c-2.422-0.037-4.839-0.017-7.251,0.007c-8.419,0.077-16.357,0.157-24.269-2.263c-1.768-0.537-3.491-0.154-4.732,1.059
		c-1.268,1.236-1.847,3.175-1.509,4.946c-0.154,0.492-0.234,0.997-0.239,1.509c-0.127,11.018,0.226,20.797,1.112,30.779
		c0.097,1.097,0.229,2.598,1.126,3.809c1.509,2.029,4.23,2.166,6.423,2.049c3.69-0.184,7.44-0.512,11.065-0.828
		c9.523-0.83,19.373-1.693,28.819-0.01c0.249,0.045,0.709,0.127,0.848,0.261c0.194,0.186,0.196,0.917,0.196,1.228l0.02,20.708
		c-14.877-0.276-29.98-0.731-44.596-1.169c-19.716-0.592-40.091-1.206-60.167-1.39V944.23
		C623.392,947.363,637.966,945.985,652.077,944.65z M623.795,671.666c1.83,4.99,1.755,8.937-0.224,11.729
		c-4.799,6.768-20.121,6.567-30.254,6.42c-2.196-0.027-4.21-0.052-5.906-0.017c-1.236,0.03-2.539,0.077-3.886,0.127
		c-7.507,0.276-16.844,0.617-23.239-2.308c-4.222-1.93-7.865-7.775-8.477-13.596c-0.254-2.442-0.134-6.94,3.538-9.658
		c2.397-1.775,5.602-2.27,8.705-2.541c3.377-0.293,6.801-0.403,10.235-0.403c5.092,0,10.205,0.241,15.218,0.475
		c4.162,0.196,8.467,0.398,12.676,0.458C611.031,662.478,620.731,663.314,623.795,671.666z M571.567,645.371
		c-0.02-0.477-0.037-0.952-0.057-1.43c5.296,0.099,10.642-0.169,15.832-0.428c2.598-0.129,5.184-0.256,7.756-0.341
		c1.472-0.047,3.011-0.037,4.585-0.02v9.203c-5.102-0.187-10.215-0.331-15.32-0.475l-7.917-0.231
		c-1.542-0.047-3.135-0.094-4.754-0.114c0.007-0.477,0.007-0.942,0.007-1.392C571.699,648.551,571.634,646.96,571.567,645.371z
		 M617.541,601.702c7.567,2.633,7.062,6.696,6.363,12.321l-0.177,1.477c-1.199,10.66-2.82,15.822-12.448,17.08
		c-10.7,1.405-22.342,1.286-33.608,1.161l-6.013-0.045c-7.803-0.003-18.488-0.005-21.33-7.599
		c-2.477-6.609,0.704-16.083,4.262-22.359c10.299-4.488,22.752-3.663,34.779-2.862c5.682,0.375,11.05,0.729,16.222,0.567
		c0.93-0.03,1.917-0.099,2.934-0.169C611.71,601.045,615.005,600.819,617.541,601.702z M571.497,582.08
		c4.655,0.097,9.28-0.122,13.758-0.332l1.534-0.071c2.952-0.137,5.958-0.157,9.141-0.179c2.847-0.02,5.776-0.04,8.678-0.15v9.356
		c-1.432,0.057-2.862,0.134-4.279,0.209c-3.76,0.196-7.313,0.385-10.6,0.236l-3.407-0.167c-4.063-0.204-8.233-0.415-12.383-0.415
		c-0.686,0-1.373,0.007-2.056,0.02c-0.045-1.581-0.127-3.16-0.209-4.741C571.609,584.592,571.545,583.336,571.497,582.08z
		 M612.6,539.284c8.052,2.919,11.965,8.049,11.968,15.601c-0.487,7.79-2.099,13.003-8.616,14.924
		c-2.676,0.787-5.848,0.808-8.919,0.828c-0.918,0.006-1.818,0.012-2.685,0.04c-3.71,0.113-7.432,0.322-11.155,0.532
		c-8.203,0.463-16.685,0.941-24.953,0.327c-10.528-0.78-17.451-2.068-17.749-12.451c-0.241-8.239,1.969-15.008,6.221-19.058
		c2.996-2.856,6.908-4.297,11.645-4.297c0.632,0,1.278,0.026,1.937,0.077c3.213,0.249,7.206,0.255,11.433,0.261
		C591.571,536.083,603.825,536.101,612.6,539.284z M775.706,447.814c-17.839,21.391-44.544,37.931-73.271,45.381
		c-18.102,4.691-37.368,4.572-60.642-0.377l-0.783-0.165c-15.481-3.288-41.272-8.766-47.073-25.786
		c3.337-4.594,6.671-10.4,9.349-16.256c20.432,22.493,57.186,17.955,82.882,6.99c26.589-11.347,55.047-35.284,48.965-65.759
		c13.039-0.776,25.997-4.095,34.707-6.798c7.104-2.207,13.795-5.177,19.907-8.836C804.015,396.868,790.188,430.448,775.706,447.814z
		 M787.482,366.277c-20.318,13.104-69.174,26.349-87.261,4.508c4.153-9.459,6.042-20.699,5.63-33.457
		c7.848,0.638,33.623-12.499,35.563-14.034c11.351-8.99,19.549-21.401,22.493-34.047c3.073-13.216,0.288-25.449-8.051-35.373
		c-11.722-13.943-34.143-22.503-55.836-21.289c-18.281,1.019-38.432,10.835-42.973,30.468c-7.084-1.208-14.221-1.42-19.072-1.471
		c-0.293,0.001-0.515,0.015-0.773,0.052c-0.487-0.577-1.02-1.165-1.621-1.79c7.621-9.438,11.998-20.931,12.694-33.347
		c33.658-26.195,81.3-24.607,111.98-15.249c32.544,9.93,54.093,35.432,59.115,69.97
		C823.642,310.566,815.439,348.248,787.482,366.277z"/>
</g>
</svg>
